<?xml version="1.0" standalone="no"?><!DOCTYPE svg PUBLIC "-//W3C//DTD SVG 1.1//EN" "http://www.w3.org/Graphics/SVG/1.1/DTD/svg11.dtd"><svg t="1733832220055" class="icon" viewBox="0 0 1024 1024" version="1.1" xmlns="http://www.w3.org/2000/svg" p-id="1628" xmlns:xlink="http://www.w3.org/1999/xlink" width="200" height="200"><path d="M867.9 434.3c-9.2-21.7-20.3-42.4-33.2-61.8l56.2-56.2c9-9 9-23.6 0-32.6l-72.3-72.3c-4.3-4.3-10.2-6.7-16.3-6.7s-12 2.4-16.3 6.7L730.6 267c-20.7-14.1-42.7-26.1-66-36-12.9-5.4-26-10.1-39.2-14.1 6.2-14.6 9.5-30.4 9.5-46.4 0-65.6-53.4-118.9-118.9-118.9-65.6 0-119 53.4-119 118.9 0 16 3.3 31.8 9.5 46.4-13.3 4-26.4 8.7-39.2 14.1-45.5 19.2-86.4 46.8-121.4 81.9-35.1 35.1-62.6 75.9-81.9 121.4-19.9 47.1-30 97.1-30 148.7s10.1 101.6 30 148.7c19.2 45.5 46.8 86.4 81.9 121.4 35.1 35.1 75.9 62.6 121.4 81.9 47.1 19.9 97.1 30 148.7 30 51.6 0 101.6-10.1 148.7-30 45.5-19.2 86.4-46.8 121.4-81.9 35.1-35.1 62.6-75.9 81.9-121.4 19.9-47.1 30-97.1 30-148.7s-10.2-101.5-30.1-148.7z m-65.5-174l39.7 39.7-34.4 34.4-39.7-39.7 34.4-34.4zM443 170.5c0-40.2 32.7-72.9 72.9-72.9s72.9 32.7 72.9 72.9c0 12.6-3.3 24.9-9.4 35.8-20.8-3.5-42-5.2-63.5-5.2s-42.7 1.8-63.5 5.2c-6.2-10.9-9.4-23.2-9.4-35.8z m310.4 650.1C690 884.1 605.6 919 515.8 919c-89.7 0-174.1-34.9-237.6-98.4S179.8 672.8 179.8 583c0-89.7 34.9-174.1 98.4-237.6 46.6-46.6 104.5-77.8 167.4-91.1 0.7-0.1 1.4-0.3 2.1-0.4 22.1-4.5 44.9-6.9 68-6.9 23.4 0 46.5 2.4 68.9 7.1 0.3 0.1 0.5 0.1 0.8 0.2 63.1 13.3 121.2 44.5 167.9 91.2 63.5 63.5 98.4 147.8 98.4 237.6s-34.8 174.1-98.3 237.5z" fill="#2c2c2c" p-id="1629"></path><path d="M515.8 875.9c-78.2 0-151.8-30.5-207.1-85.8-55.2-55.3-85.7-128.8-85.7-207s30.5-151.8 85.8-207.1c55.3-55.3 128.8-85.8 207.1-85.8S667.7 320.7 723 376c55.3 55.3 85.8 128.8 85.8 207.1S778.3 734.9 723 790.2c-55.4 55.2-128.9 85.7-207.2 85.7z m0-539.6c-65.9 0-127.9 25.7-174.5 72.3-46.6 46.6-72.3 108.6-72.3 174.5s25.7 127.9 72.3 174.5c46.6 46.6 108.6 72.3 174.5 72.3s127.9-25.7 174.5-72.3c46.6-46.6 72.3-108.6 72.3-174.5S737 455.2 690.3 408.6s-108.5-72.3-174.5-72.3z" fill="#2c2c2c" p-id="1630"></path><path d="M555.1 560.8c-6.1 0-12.3-2.4-16.8-7.3-8.7-9.3-8.2-23.9 1-32.6l97.4-91.4c9.3-8.7 23.9-8.2 32.6 1s8.2 23.9-1 32.6l-97.4 91.4c-4.5 4.3-10.2 6.3-15.8 6.3z" fill="#2c2c2c" p-id="1631"></path><path d="M515.8 655.7c-42.6 0-77.3-34.7-77.3-77.3s34.7-77.3 77.3-77.3c42.6 0 77.3 34.7 77.3 77.3s-34.7 77.3-77.3 77.3z m0-108.5c-17.2 0-31.2 14-31.2 31.2s14 31.2 31.2 31.2 31.2-14 31.2-31.2-14-31.2-31.2-31.2z" fill="#2c2c2c" p-id="1632"></path></svg>